<?xml version="1.0" encoding="utf-8"?>
    <!-- Generator: Adobe Illustrator 23.0.4, SVG Export Plug-In . SVG Version: 6.00 Build 0)  -->
    <svg version="1.1" id="Layer_1" xmlns="http://www.w3.org/2000/svg" xmlns:xlink="http://www.w3.org/1999/xlink"
        x="0px" y="0px" viewBox="0 0 301 251" style="enable-background:new 0 0 301 251;" xml:space="preserve">
        <style type="text/css">
            .st0 {
                fill: none;
                stroke: #000000;
                stroke-width: 5;
                stroke-linecap: round;
                stroke-miterlimit: 10;
            }

            .st1 {
                opacity: 0.6;
                fill: none;
                stroke: #000000;
                stroke-width: 2;
                stroke-linecap: round;
                stroke-miterlimit: 10;
            }

            .st2 {
                fill: none;
                stroke: #000000;
                stroke-width: 3;
                stroke-linecap: round;
                stroke-miterlimit: 10;
                stroke-dasharray: 5, 10;
            }

            .st3 {
                fill: none;
                stroke: #000000;
                stroke-width: 2;
                stroke-linecap: round;
                stroke-miterlimit: 10;
            }
        </style>
        <g id="shock-plane">
            <line class="st0" x1="30.5" y1="180" x2="181.6" y2="180" />
            <line class="st0" x1="181.6" y1="180" x2="250.2" y2="140.4" />
            <line class="st1" x1="30.5" y1="180" x2="21.3" y2="189.2" />
            <line class="st1" x1="51" y1="180" x2="41.7" y2="189.2" />
            <line class="st1" x1="71.4" y1="180" x2="62.2" y2="189.2" />
            <line class="st1" x1="91.9" y1="180" x2="82.7" y2="189.2" />
            <line class="st1" x1="112.4" y1="180" x2="103.2" y2="189.2" />
            <line class="st1" x1="132.8" y1="180" x2="123.6" y2="189.2" />
            <line class="st1" x1="153.3" y1="180" x2="144.1" y2="189.2" />
            <line class="st1" x1="171.9" y1="180" x2="162.7" y2="189.2" />
            <line class="st1" x1="246.9" y1="152.9" x2="250.2" y2="140.3" />
            <line class="st1" x1="233.5" y1="163.1" x2="236.9" y2="150.5" />
            <line class="st1" x1="220.1" y1="168.7" x2="223.5" y2="156.1" />
            <line class="st1" x1="206.7" y1="176.5" x2="210.1" y2="163.9" />
            <line class="st1" x1="179.8" y1="189.2" x2="183.4" y2="175.5" />
            <line class="st2" x1="181.6" y1="180" x2="203.9" y2="90.3" />
            <path class="st1" d="M196.7,171.4l-3.4,12.6" />
            <line class="st3" x1="38.8" y1="142" x2="191" y2="142" />
            <line class="st3" x1="191" y1="142" x2="248.6" y2="109.7" />
            <polygon points="70.9,146.1 70.9,137.9 75,142 	" />
            <polygon points="109.5,146.3 109.5,138.1 113.6,142.2 	" />
            <polygon points="148.1,146.3 148.1,138.1 152.2,142.2 	" />
            <polygon points="229.8,125.1 225.7,118 231.3,119.5 	" />
            <polygon points="196.4,143.7 192.3,136.6 197.9,138.1 	" />
            <circle cx="38.8" cy="142" r="3.2" />
            <circle cx="248.6" cy="109.7" r="3.2" />
        </g>
        <g id="M1">
            <path d="M53.6,90.3c-0.1-2-0.2-4.5-0.2-6.3h-0.1c-0.5,1.7-1.1,3.5-1.8,5.6l-2.6,7.1h-1.4l-2.4-7c-0.7-2.1-1.3-4-1.7-5.7h0
		c0,1.8-0.2,4.3-0.3,6.5l-0.4,6.3h-1.8l1-14.7h2.4l2.5,7.1c0.6,1.8,1.1,3.4,1.5,4.9h0.1c0.4-1.5,0.9-3.1,1.5-4.9l2.6-7.1h2.4
		l0.9,14.7h-1.8L53.6,90.3z" />
            <path d="M59.4,99.9v-7.2h0l-1.6,0.8l-0.2-1.1l2-1h1.3v8.5H59.4z" />
        </g>
        <g id="p1">
            <path d="M73,89.6c0-1.3,0-2.4-0.1-3.4h1.7l0.1,1.8h0c0.8-1.3,2-2,3.7-2c2.5,0,4.5,2.2,4.5,5.3c0,3.8-2.3,5.7-4.8,5.7
		c-1.4,0-2.6-0.6-3.2-1.7h0v5.7H73V89.6z M74.9,92.4c0,0.3,0,0.5,0.1,0.8c0.3,1.3,1.5,2.2,2.9,2.2c2,0,3.2-1.7,3.2-4.1
		c0-2.1-1.1-3.9-3.1-3.9c-1.3,0-2.5,0.9-2.9,2.4c-0.1,0.2-0.1,0.5-0.1,0.8V92.4z" />
            <path d="M86.1,99.9v-7.2h0l-1.6,0.8l-0.2-1.1l2-1h1.3v8.5H86.1z" />
        </g>
        <g id="T1">
            <path d="M25.8,109.8h-4.5v-1.6h10.9v1.6h-4.5v13h-1.9V109.8z" />
            <path d="M34.5,126v-7.2h0l-1.6,0.8l-0.2-1.1l2-1h1.3v8.5H34.5z" />
        </g>
        <g id="rho1">
            <path d="M48.3,127.1c-0.2-0.7-0.2-2.2-0.2-3.8v-4.9c0-2.7,0.7-3.9,1.5-4.8c0.8-0.9,2-1.6,3.6-1.6c2.9,0,4.8,2.2,4.8,5.3
		c0,3.7-2.3,5.7-4.8,5.7c-1.4,0-2.6-0.6-3.2-1.5H50v1.7c0,1.2,0,3,0.2,3.9H48.3z M50,118.7c0,0.3,0,0.5,0.1,0.8
		c0.3,1.2,1.5,2.1,2.8,2.1c2,0,3.2-1.7,3.2-4.1c0-2.1-1.1-3.8-3-3.8c-1.5,0-3.1,1.2-3.1,4.2V118.7z" />
            <path d="M61.2,126v-7.2h0l-1.6,0.8l-0.2-1.1l2-1h1.3v8.5H61.2z" />
        </g>
        <g id="gamma">
            <path
                d="M25.4,101c0.1-2,0.1-4.1-0.4-6.2c-0.8-3.5-2.7-7-3.7-8.7h2.2c1,1.4,2.5,5,3.2,8.2h0.1c1-1.8,2.5-4.9,2.5-7.5
		c0-0.3,0-0.5,0-0.7H31c0,0.2,0.1,0.5,0.1,0.7c0,2.7-1.7,6.2-3.7,9.2c-0.1,0.2-0.1,0.3-0.1,0.5c0.1,1.2,0.1,2.9,0.1,4.3H25.4z" />
            <path
                d="M223.9,64.6c0.1-2,0.1-4.1-0.4-6.2c-0.8-3.5-2.7-7-3.7-8.7h2.2c1,1.4,2.5,5,3.2,8.2h0.1c1-1.8,2.5-4.9,2.5-7.5
		c0-0.3,0-0.5,0-0.7h1.8c0,0.2,0.1,0.5,0.1,0.7c0,2.7-1.7,6.2-3.7,9.2c-0.1,0.2-0.1,0.3-0.1,0.5c0.1,1.2,0.1,2.9,0.1,4.3H223.9z" />
        </g>
        <g id="M2">
            <path d="M252,53.8c-0.1-2-0.2-4.5-0.2-6.3h-0.1c-0.5,1.7-1.1,3.5-1.8,5.6l-2.6,7.1h-1.4l-2.4-7c-0.7-2.1-1.3-4-1.7-5.7h0
		c0,1.8-0.2,4.3-0.3,6.5l-0.4,6.3h-1.8l1-14.7h2.4l2.5,7.1c0.6,1.8,1.1,3.4,1.5,4.9h0.1c0.4-1.5,0.9-3.1,1.5-4.9l2.6-7.1h2.4
		l0.9,14.7h-1.8L252,53.8z" />
            <path d="M255.8,62.6l1.4-1.3c1.8-1.6,2.7-2.7,2.7-3.8c0-0.8-0.5-1.5-1.7-1.5c-0.8,0-1.4,0.4-1.8,0.7l-0.5-1
		c0.6-0.5,1.6-0.9,2.7-0.9c2,0,2.9,1.3,2.9,2.5c0,1.6-1.2,2.8-2.9,4.3l-0.7,0.6v0h3.7v1.2h-5.9V62.6z" />
        </g>
        <g id="p2">
            <path d="M273,53.2c0-1.3,0-2.4-0.1-3.4h1.7l0.1,1.8h0c0.8-1.3,2-2,3.7-2c2.5,0,4.5,2.2,4.5,5.3c0,3.8-2.3,5.7-4.8,5.7
		c-1.4,0-2.6-0.6-3.2-1.7h0v5.7H273V53.2z M274.9,56c0,0.3,0,0.5,0.1,0.8c0.3,1.3,1.5,2.2,2.9,2.2c2,0,3.2-1.7,3.2-4.1
		c0-2.1-1.1-3.9-3.1-3.9c-1.3,0-2.5,0.9-2.9,2.4c-0.1,0.2-0.1,0.5-0.1,0.8V56z" />
            <path d="M284,62.6l1.4-1.3c1.8-1.6,2.7-2.7,2.7-3.8c0-0.8-0.5-1.5-1.7-1.5c-0.8,0-1.4,0.4-1.8,0.7l-0.5-1c0.6-0.5,1.6-0.9,2.7-0.9
		c2,0,2.9,1.3,2.9,2.5c0,1.6-1.2,2.8-2.9,4.3l-0.7,0.6v0h3.7v1.2H284V62.6z" />
        </g>
        <g id="T2">
            <path d="M224.3,73.3h-4.5v-1.6h10.9v1.6h-4.5v13h-1.9V73.3z" />
            <path d="M230.9,88.7l1.4-1.3c1.8-1.6,2.7-2.7,2.7-3.8c0-0.8-0.5-1.5-1.7-1.5c-0.8,0-1.4,0.4-1.8,0.7l-0.5-1
		c0.6-0.5,1.6-0.9,2.7-0.9c2,0,2.9,1.3,2.9,2.5c0,1.6-1.2,2.8-2.9,4.3l-0.7,0.6v0h3.7v1.2h-5.9V88.7z" />
        </g>
        <g id="commas">
            <path d="M30.8,99.4c0.5-1.3,1.1-3.6,1.3-5.2l2.1-0.2c-0.5,1.8-1.5,4.3-2.1,5.3L30.8,99.4z" />
            <path d="M62.7,99.4c0.5-1.3,1.1-3.6,1.3-5.2l2.1-0.2c-0.5,1.8-1.5,4.3-2.1,5.3L62.7,99.4z" />
            <path d="M89.5,99.4c0.5-1.3,1.1-3.6,1.3-5.2l2.1-0.2c-0.5,1.8-1.5,4.3-2.1,5.3L89.5,99.4z" />
            <path d="M37.9,125.5c0.5-1.3,1.1-3.6,1.3-5.2l2.1-0.2c-0.5,1.8-1.5,4.3-2.1,5.3L37.9,125.5z" />
            <path d="M229.3,62.9c0.5-1.3,1.1-3.6,1.3-5.2l2.1-0.2c-0.5,1.8-1.5,4.3-2.1,5.3L229.3,62.9z" />
            <path d="M262.6,62.9c0.5-1.3,1.1-3.6,1.3-5.2l2.1-0.2c-0.5,1.8-1.5,4.3-2.1,5.3L262.6,62.9z" />
            <path d="M237.8,89c0.5-1.3,1.1-3.6,1.3-5.2l2.1-0.2c-0.5,1.8-1.5,4.3-2.1,5.3L237.8,89z" />
        </g>
        <g id="rho2">
            <path d="M248.3,90.6c-0.2-0.7-0.2-2.2-0.2-3.8v-4.9c0-2.7,0.7-3.9,1.5-4.8c0.8-0.9,2-1.6,3.6-1.6c2.9,0,4.8,2.2,4.8,5.3
		c0,3.7-2.3,5.7-4.8,5.7c-1.4,0-2.6-0.6-3.2-1.5h-0.1v1.7c0,1.2,0,3,0.2,3.9H248.3z M249.9,82.2c0,0.3,0,0.5,0.1,0.8
		c0.3,1.2,1.5,2.1,2.8,2.1c2,0,3.2-1.7,3.2-4.1c0-2.1-1.1-3.8-3-3.8c-1.5,0-3.1,1.2-3.1,4.2V82.2z" />
            <path d="M259.1,88.7l1.4-1.3c1.8-1.6,2.7-2.7,2.7-3.8c0-0.8-0.5-1.5-1.7-1.5c-0.8,0-1.4,0.4-1.8,0.7l-0.5-1
		c0.6-0.5,1.6-0.9,2.7-0.9c2,0,2.9,1.3,2.9,2.5c0,1.6-1.2,2.8-2.9,4.3l-0.7,0.6v0h3.7v1.2h-5.9V88.7z" />
        </g>
        <g id="theta">
            <g>
                <path
                    d="M214,192.7c-0.1,0-0.2,0-0.2,0c-0.5-0.1-0.9-0.7-0.7-1.2c0-0.1,2-9.1-2.6-14.7c-2.8-3.3-7.4-4.8-13.7-4.5
			c-0.5,0-1-0.4-1-0.9c0-0.6,0.4-1,0.9-1c7-0.4,12.1,1.4,15.3,5.2c5.3,6.4,3.1,16,3,16.4C214.9,192.4,214.5,192.7,214,192.7z" />
            </g>
            <g>
                <path
                    d="M200.2,195.9c0-4.4,1.8-7.7,5-7.7c3.3,0,4.8,3.1,4.8,7.7c0,4.8-1.6,8-4.9,8C202.1,203.9,200.2,201.2,200.2,195.9z
			 M208.2,195.1c0-3.1-1-5.5-3.1-5.5c-1.9,0-3.1,2.6-3.1,5.5H208.2z M202.1,196.5c0,3.8,1.3,6,3.1,6c2,0,3-2.5,3-6H202.1z" />
            </g>
        </g>
        <g id="beta">
            <g>
                <path d="M245.2,192.7c0,0-0.1,0-0.1,0c-0.5-0.1-0.9-0.6-0.9-1.1c0-0.3,4-31.2-12.5-49.5c-8.5-9.4-20.9-14-37-13.5
			c-0.6,0-1-0.4-1-1c0-0.6,0.4-1,1-1c16.7-0.5,29.7,4.3,38.6,14.2c9,9.9,12,23.3,13,32.8c1.1,10.2,0,18,0,18.3
			C246.1,192.4,245.6,192.7,245.2,192.7z" />
            </g>
            <g>
                <path
                    d="M234.1,202.6v1.4c0,1.2,0,3,0.2,3.9h-1.8c-0.3-0.7-0.3-2.1-0.3-3.7v-9.9c0-3,0.8-4.3,1.6-5.1c0.7-0.7,1.7-1.1,3.1-1.1
			c2.1,0,3.8,1.5,3.8,3.7c0,1.6-0.9,2.9-1.9,3.4v0.1c1.6,0.3,3.2,1.7,3.2,4.1c0,2.9-2.2,4.5-4.5,4.5
			C236,203.9,234.9,203.4,234.1,202.6L234.1,202.6z M234.1,200.7c0.5,0.8,1.5,1.7,3,1.7c1.7,0,2.9-1.3,2.9-3c0-2.1-1.5-3.1-3.4-3.2
			c-0.2,0-0.4,0-0.6,0V195c0.1,0,0.2,0,0.4,0c1.6-0.1,2.5-1.4,2.5-2.8c0-1.5-0.9-2.5-2.2-2.5c-1.7,0-2.7,1.5-2.7,4.5V200.7z" />
            </g>
        </g>
    </svg>